<svg xmlns="http://www.w3.org/2000/svg" width="1024" height="1024" viewBox="0 0 1024 1024">
<g>
<path d="M 203.23 679.00 L 203.50 713.50 L 193.75 713.79 C188.39,713.94 184.01,713.72 184.03,713.29 C184.04,712.85 183.83,697.20 183.55,678.50 C183.23,657.35 183.40,643.93 184.00,643.00 C184.64,642.02 184.97,653.64 184.98,676.75 L 185.00 712.00 L 202.30 712.00 L 201.66 679.25 C201.31,661.24 201.02,637.84 201.01,627.25 L 201.00 608.00 L 179.30 608.00 L 176.53 614.51 C175.01,618.10 173.40,621.25 172.97,621.52 C172.53,621.79 173.59,618.64 175.33,614.52 L 178.50 607.03 L 201.74 607.00 L 202.35 625.75 C202.68,636.06 203.08,660.03 203.23,679.00 ZM 630.75 688.00 L 630.50 713.50 L 620.95 713.78 C615.70,713.94 611.09,713.75 610.70,713.37 C610.32,712.98 610.00,695.19 610.00,673.83 L 610.00 635.00 L 630.00 635.00 L 629.98 639.25 C629.98,641.59 629.53,644.17 629.00,645.00 C628.31,646.07 628.03,645.01 628.02,641.25 L 628.00 636.00 L 611.50 636.00 L 611.50 712.00 L 620.19 712.00 L 628.88 712.00 L 629.19 686.07 C629.48,661.71 629.62,659.98 631.56,657.38 C634.30,653.71 638.49,650.66 640.06,651.19 C640.76,651.42 639.57,652.64 637.41,653.91 C633.52,656.20 631.84,658.14 631.29,661.00 C631.13,661.83 630.89,673.97 630.75,688.00 ZM 412.00 810.00 C412.00,840.67 411.65,857.00 411.00,857.00 C410.35,857.00 410.00,840.83 410.00,810.50 L 410.00 764.00 L 395.00 764.00 L 395.00 781.94 C395.00,793.21 394.62,800.12 393.97,800.52 C393.27,800.95 392.97,794.98 393.04,782.08 L 393.15 763.00 L 412.00 763.00 ZM 411.50 859.00 C410.82,860.10 394.74,860.40 393.67,859.33 C392.56,858.22 392.88,824.00 394.00,824.00 C394.63,824.00 395.00,830.33 395.00,841.00 L 395.00 858.00 L 403.56 858.00 C409.01,858.00 411.89,858.36 411.50,859.00 ZM 936.90 644.50 L 936.73 652.00 L 918.50 651.59 L 927.00 651.26 L 935.50 650.93 L 935.17 643.97 C934.95,639.29 935.20,637.00 935.96,637.00 C936.70,637.00 937.02,639.53 936.90,644.50 Z" fill="rgb(3,19,39)"/>
<path d="M 201.74 607.00 L 178.50 607.03 L 175.33 614.52 C173.59,618.64 172.53,621.79 172.97,621.52 C173.40,621.25 175.01,618.10 176.53,614.51 L 179.30 608.00 L 201.00 608.00 L 201.01 627.25 C201.02,637.84 201.31,661.24 201.66,679.25 L 202.30 712.00 L 185.00 712.00 L 184.98 676.75 C184.97,653.64 184.64,642.02 184.00,643.00 C183.62,643.59 183.41,649.22 183.39,658.65 C183.15,649.05 182.88,642.21 182.68,642.28 C182.22,642.43 180.07,646.81 177.89,652.02 C173.54,662.42 171.10,667.91 167.47,675.50 C166.15,678.25 163.25,684.44 161.02,689.25 L 156.98 698.00 L 148.23 698.00 C140.25,698.00 139.35,697.80 138.03,695.75 C137.23,694.51 136.67,693.16 136.79,692.75 C136.90,692.34 136.52,692.00 135.94,692.00 C135.36,692.00 135.16,691.55 135.50,691.00 C135.84,690.45 135.72,690.00 135.23,690.00 C134.73,690.00 134.33,689.41 134.33,688.69 C134.33,687.00 127.83,672.69 126.69,671.89 C126.22,671.55 125.94,671.10 126.07,670.89 C126.61,670.05 123.79,663.00 122.92,663.00 C122.42,663.00 122.09,662.66 122.20,662.25 C122.54,661.00 119.65,654.00 118.80,654.00 C118.36,654.00 118.09,653.66 118.20,653.25 C118.60,651.81 115.84,645.00 114.86,645.00 C114.32,645.00 114.16,644.55 114.50,644.00 C114.84,643.45 114.42,643.00 113.56,643.00 C112.18,643.00 112.00,646.97 112.00,678.00 L 112.00 713.00 L 94.00 713.00 L 94.00 607.00 L 116.50 607.00 L 118.60 611.25 C119.76,613.59 122.65,620.00 125.03,625.50 C127.40,631.00 129.98,636.25 130.75,637.16 C131.52,638.08 132.27,639.43 132.42,640.16 C132.72,641.62 134.24,645.49 136.70,650.98 C137.56,652.92 139.05,656.30 140.02,658.50 C145.11,670.12 147.60,674.95 148.51,674.98 C149.06,674.99 150.13,673.54 150.88,671.75 C151.64,669.96 155.42,661.30 159.29,652.50 C163.16,643.70 166.33,635.94 166.33,635.25 C166.33,634.56 166.66,634.00 167.06,634.00 C167.80,634.00 169.46,629.09 169.16,627.75 C169.07,627.34 169.48,627.00 170.06,627.00 C170.64,627.00 170.84,626.55 170.50,626.00 C170.16,625.45 170.36,625.00 170.94,625.00 C171.52,625.00 172.00,624.44 171.99,623.75 C171.99,623.06 173.42,619.01 175.17,614.75 L 178.36 607.00 L 201.74 607.00 ZM 321.96 742.07 C321.07,743.74 319.81,744.00 312.63,744.00 C308.07,744.00 304.03,743.70 303.67,743.33 C303.30,742.97 303.00,718.67 303.00,689.33 L 303.00 636.00 L 321.68 636.00 L 321.42 639.99 C321.28,642.19 321.60,644.25 322.13,644.58 C322.66,644.91 324.57,643.62 326.37,641.71 C334.38,633.22 351.99,631.44 363.61,637.95 C369.49,641.25 374.88,646.38 374.96,648.75 C374.98,649.44 375.40,650.00 375.88,650.00 C376.62,650.00 377.28,651.31 378.38,655.00 C378.46,655.28 378.81,655.95 379.15,656.50 C380.92,659.34 382.20,670.18 381.62,677.50 C380.39,693.13 375.66,702.41 365.59,708.90 C358.49,713.48 353.62,714.99 346.00,714.98 C336.62,714.97 333.27,713.99 328.59,709.87 C326.17,707.74 323.92,706.00 323.60,706.00 C323.27,706.00 323.00,713.68 323.00,723.07 C323.00,732.92 322.56,740.95 321.96,742.07 ZM 637.74 653.71 C639.69,652.52 640.72,651.41 640.06,651.19 C638.49,650.66 634.30,653.71 631.56,657.38 C629.62,659.98 629.48,661.71 629.19,686.07 L 628.88 712.00 L 620.19 712.00 L 611.50 712.00 L 611.50 636.00 L 628.00 636.00 L 628.02 641.25 C628.03,645.01 628.31,646.07 629.00,645.00 C629.25,644.62 629.48,643.85 629.65,642.91 C629.59,644.73 629.69,645.99 629.92,645.99 C630.24,645.98 631.49,644.45 632.69,642.59 C635.94,637.57 644.47,633.72 652.58,633.60 C656.11,633.54 659.00,633.84 659.00,634.25 C659.00,634.66 659.69,635.00 660.54,635.00 C663.33,635.00 669.63,638.82 672.80,642.43 C674.79,644.69 676.47,645.76 677.46,645.38 C678.31,645.05 679.00,644.38 679.00,643.88 C679.00,642.09 685.57,637.15 689.50,635.98 C691.70,635.33 694.04,634.35 694.71,633.81 C695.37,633.27 696.30,633.07 696.78,633.36 C697.26,633.66 701.10,634.01 705.32,634.15 C709.55,634.28 713.00,634.64 713.00,634.95 C713.00,635.25 714.92,636.52 717.27,637.77 C721.84,640.20 726.25,646.33 727.50,652.00 C728.06,654.53 728.47,697.25 728.07,710.75 C728.00,712.92 727.67,713.00 718.50,713.00 L 709.00 713.00 L 709.00 686.93 C709.00,660.65 708.77,658.76 705.16,655.17 C699.05,649.11 687.02,649.88 682.45,656.61 C680.67,659.25 680.46,661.84 680.00,686.00 L 679.50 712.50 L 660.50 712.50 L 660.00 685.58 C659.62,665.23 659.19,658.56 658.24,658.25 C657.55,658.02 657.22,657.45 657.51,656.99 C658.36,655.60 652.78,652.29 648.32,651.55 C645.19,651.02 643.05,651.33 639.82,652.78 C639.06,653.12 638.37,653.42 637.74,653.71 ZM 568.79 713.35 C560.69,715.34 546.48,715.40 539.33,713.48 C531.38,711.33 518.00,702.20 518.00,698.92 C518.00,698.42 517.60,698.00 517.12,698.00 C516.63,698.00 515.90,696.99 515.50,695.75 C514.43,692.47 514.27,692.03 514.04,691.75 C513.93,691.61 513.63,690.26 513.38,688.74 C512.92,685.93 513.00,685.86 519.50,683.41 C520.60,683.00 522.40,682.56 523.50,682.45 C524.60,682.33 526.96,681.90 528.75,681.49 C531.81,680.79 532.09,680.97 533.54,684.45 C535.35,688.77 540.88,695.19 542.14,694.42 C542.61,694.12 543.00,694.39 543.00,695.00 C543.00,695.61 543.50,695.81 544.11,695.43 C544.72,695.05 545.61,695.36 546.08,696.12 C546.70,697.13 549.29,697.49 555.71,697.46 C562.84,697.43 565.31,697.00 568.79,695.17 C576.16,691.30 579.05,683.84 575.09,678.88 C572.24,675.32 565.97,672.61 551.00,668.50 C536.39,664.48 530.52,662.35 527.67,660.00 C523.48,656.55 520.00,652.92 520.00,651.99 C520.00,651.45 519.52,651.00 518.94,651.00 C518.36,651.00 518.16,650.55 518.50,650.00 C518.84,649.45 518.61,649.00 518.00,649.00 C517.39,649.00 517.14,648.58 517.46,648.07 C517.77,647.56 517.62,646.89 517.12,646.58 C516.62,646.27 516.28,642.07 516.36,637.26 C516.47,630.22 516.97,627.54 518.91,623.60 C521.69,617.95 527.11,612.72 534.39,608.65 C538.87,606.14 540.91,605.71 551.00,605.13 C561.28,604.53 563.23,604.70 569.36,606.70 C583.61,611.34 591.97,619.15 594.39,630.09 C595.08,633.23 593.60,634.08 583.58,636.34 C576.14,638.02 575.00,637.86 575.00,635.10 C575.00,632.17 569.76,626.20 565.73,624.55 C563.48,623.62 558.93,623.00 554.46,623.00 C548.30,623.00 546.29,623.42 543.23,625.36 C541.17,626.65 538.87,628.88 538.11,630.30 C536.07,634.10 537.22,640.55 540.46,643.55 C542.87,645.78 543.72,646.17 545.64,645.91 C545.99,645.87 546.55,646.26 546.89,646.79 C547.74,648.14 565.89,652.98 567.60,652.32 C568.37,652.03 569.00,652.25 569.00,652.81 C569.00,653.88 574.56,655.55 576.75,655.14 C577.44,655.02 578.00,655.27 578.00,655.71 C578.00,656.15 580.14,657.63 582.75,659.00 C588.00,661.76 590.94,664.55 594.27,669.92 C596.14,672.95 596.47,674.88 596.41,682.51 C596.35,690.73 596.08,691.92 593.42,695.99 C591.81,698.44 588.96,701.81 587.08,703.47 C585.19,705.14 583.05,707.10 582.31,707.84 C581.57,708.58 580.34,709.27 579.58,709.39 C578.82,709.50 577.59,710.06 576.85,710.65 C576.11,711.23 572.48,712.45 568.79,713.35 ZM 478.98 714.02 C474.15,715.33 464.04,716.00 460.00,715.27 C453.77,714.15 446.55,711.91 445.09,710.64 C444.22,709.88 442.98,709.09 442.35,708.88 C439.98,708.10 432.89,698.31 430.97,693.17 C428.53,686.66 427.00,676.21 427.50,669.50 C428.38,657.78 435.03,644.05 441.53,640.55 C443.44,639.53 445.00,638.31 445.00,637.84 C445.00,637.38 445.86,637.00 446.92,637.00 C447.97,637.00 448.99,636.54 449.17,635.98 C449.36,635.42 451.08,634.72 453.01,634.42 C459.06,633.47 476.00,633.13 476.00,633.96 C476.00,634.71 481.68,636.41 483.25,636.13 C483.66,636.06 484.00,636.48 484.00,637.06 C484.00,637.64 484.45,637.84 485.00,637.50 C485.55,637.16 486.00,637.36 486.00,637.94 C486.00,638.52 486.46,639.00 487.01,639.00 C487.57,639.00 490.25,641.36 492.96,644.25 C499.74,651.47 502.18,658.77 501.79,670.69 L 501.50 679.50 L 474.14 679.77 L 446.78 680.03 L 447.46 683.65 C448.38,688.56 452.40,694.66 456.25,697.00 C464.09,701.77 471.83,700.84 479.08,694.24 C483.80,689.94 488.00,687.87 488.00,689.85 C488.00,690.31 490.70,691.50 494.00,692.50 C497.30,693.50 500.00,694.75 500.00,695.27 C500.00,695.79 498.57,698.43 496.82,701.14 C493.19,706.74 485.60,712.22 478.98,714.02 ZM 250.38 713.87 C243.55,715.74 232.48,714.40 226.71,710.99 C219.98,707.02 215.43,697.21 216.38,688.72 C216.63,686.40 216.94,684.39 217.05,684.25 C217.16,684.11 217.35,683.66 217.46,683.25 C218.85,678.34 223.82,673.65 230.00,671.44 C232.48,670.55 235.18,669.50 236.00,669.11 C236.82,668.72 240.43,668.27 244.00,668.11 C247.57,667.96 254.32,667.53 259.00,667.16 L 267.50 666.50 L 267.15 662.51 C266.44,654.28 262.26,650.19 253.66,649.30 C249.56,648.88 247.62,649.23 244.24,650.99 C239.52,653.45 238.94,654.11 237.50,658.64 L 236.50 661.79 L 229.74 660.01 C223.08,658.26 220.00,656.63 220.00,654.85 C220.00,654.35 220.74,652.26 221.65,650.22 C222.56,648.17 223.25,646.19 223.17,645.81 C223.10,645.43 223.86,644.86 224.87,644.54 C225.87,644.22 227.16,642.96 227.72,641.73 C229.31,638.26 241.54,633.94 250.36,633.73 C258.83,633.53 268.00,634.20 268.00,635.02 C268.00,635.34 269.64,636.19 271.64,636.92 C273.65,637.64 277.16,640.11 279.45,642.40 C286.00,648.95 286.50,651.95 286.50,684.50 L 286.50 712.50 L 277.15 712.79 L 267.80 713.08 L 268.15 708.04 C268.34,705.27 268.15,703.00 267.72,703.00 C267.29,703.00 265.55,704.58 263.86,706.50 C260.66,710.16 257.33,711.98 250.38,713.87 ZM 780.20 712.19 C774.64,714.14 764.48,715.28 760.50,714.39 C759.40,714.15 756.52,712.95 754.10,711.72 C745.72,707.49 742.60,702.60 742.15,692.97 C741.61,681.56 746.52,674.20 757.15,670.45 C761.70,668.84 786.80,666.45 790.09,667.31 C791.14,667.59 792.27,667.37 792.60,666.84 C793.81,664.88 791.86,657.21 789.38,654.23 C786.48,650.73 778.99,648.42 773.44,649.32 C768.83,650.06 763.00,654.63 763.00,657.50 C763.00,660.54 760.65,662.41 758.31,661.21 C757.32,660.70 754.95,659.99 753.05,659.63 C748.38,658.74 744.96,656.34 745.29,654.19 C745.44,653.21 746.56,650.72 747.78,648.65 C749.00,646.58 750.00,644.57 750.00,644.19 C750.01,643.02 759.30,637.12 763.00,635.94 C764.92,635.33 767.17,634.57 768.00,634.26 C770.40,633.37 788.07,633.31 788.62,634.20 C788.89,634.64 789.92,635.00 790.90,635.00 C794.68,635.00 805.01,641.12 806.66,644.34 C807.55,646.08 808.62,647.72 809.03,648.00 C811.27,649.50 811.99,658.39 811.99,684.75 L 812.00 713.00 L 794.00 713.00 L 794.00 708.00 C794.00,705.25 793.66,703.00 793.24,703.00 C792.83,703.00 791.00,704.62 789.19,706.60 C787.10,708.87 783.79,710.93 780.20,712.19 ZM 531.70 854.25 L 529.53 859.00 L 512.97 859.00 L 513.20 856.00 C513.32,854.35 513.71,853.00 514.05,853.00 C514.76,853.00 517.66,844.71 517.16,844.11 C516.98,843.90 517.27,843.45 517.81,843.11 C518.36,842.78 518.96,841.60 519.15,840.50 C519.34,839.40 519.75,838.28 520.05,838.00 C521.16,836.98 524.84,826.17 524.26,825.60 C523.93,825.27 524.12,825.00 524.68,825.00 C525.53,825.00 528.22,818.11 528.00,816.48 C527.96,816.17 528.65,815.21 529.52,814.34 C530.40,813.46 530.88,812.13 530.59,811.37 C530.30,810.62 530.41,810.00 530.82,810.00 C531.44,810.00 535.39,799.92 535.53,798.00 C535.55,797.72 536.12,796.52 536.78,795.33 C537.45,794.13 538.15,792.33 538.34,791.33 C538.53,790.32 539.64,787.38 540.79,784.79 C541.95,782.20 543.03,779.28 543.20,778.29 C543.36,777.31 543.75,776.28 544.05,776.00 C544.36,775.72 545.53,773.03 546.66,770.00 L 548.72 764.50 L 567.33 764.50 L 568.24 767.50 C569.45,771.53 574.80,785.49 577.13,790.70 C578.16,793.00 579.00,795.81 579.00,796.95 C579.00,798.08 579.39,799.00 579.87,799.00 C580.35,799.00 581.32,801.14 582.03,803.75 C582.74,806.36 584.11,810.30 585.07,812.50 C586.04,814.70 587.37,818.30 588.04,820.50 C588.71,822.70 589.85,825.62 590.56,827.00 C591.28,828.38 592.65,831.75 593.61,834.50 C594.56,837.25 595.66,839.95 596.04,840.50 C596.42,841.05 597.53,843.97 598.49,847.00 C599.46,850.03 600.64,852.93 601.12,853.45 C601.61,853.97 602.00,855.43 602.00,856.70 C602.00,858.93 601.72,859.00 593.08,859.00 L 584.17 859.00 L 582.42 854.25 C581.46,851.64 580.01,847.92 579.19,846.00 C578.38,844.08 577.54,841.60 577.34,840.50 C576.59,836.48 574.42,836.00 557.06,836.03 C539.43,836.07 537.00,836.65 537.00,840.86 C537.00,842.04 536.59,843.00 536.08,843.00 C535.57,843.00 534.87,844.46 534.52,846.25 C534.16,848.04 532.90,851.64 531.70,854.25 ZM 411.54 851.82 L 411.50 858.79 C411.18,858.28 408.37,858.00 403.56,858.00 L 395.00 858.00 L 395.00 841.00 C395.00,830.33 394.63,824.00 394.00,824.00 C393.62,824.00 393.33,827.95 393.16,833.21 L 393.33 819.50 L 372.16 819.00 C351.50,818.51 351.00,818.55 350.97,820.50 C350.95,821.60 350.84,830.60 350.72,840.50 L 350.50 858.50 L 333.00 859.08 L 333.00 763.92 L 350.50 764.50 L 350.77 783.75 L 351.04 803.00 L 393.00 803.00 L 393.07 791.49 C393.17,797.88 393.47,800.83 393.97,800.52 C394.62,800.12 395.00,793.21 395.00,781.94 L 395.00 764.00 L 410.00 764.00 L 410.00 810.50 C410.00,840.83 410.35,857.00 411.00,857.00 C411.21,857.00 411.39,855.25 411.54,851.82 ZM 667.47 859.10 C666.91,859.53 661.96,860.12 656.47,860.41 C645.92,860.98 641.48,860.07 630.75,855.13 C621.36,850.82 612.32,838.49 609.03,825.50 C606.95,817.28 607.05,802.64 609.24,796.12 C610.27,793.03 611.18,789.71 611.27,788.75 C611.36,787.79 611.81,787.00 612.27,787.00 C612.74,787.00 612.84,786.55 612.50,786.00 C612.16,785.45 612.33,785.00 612.87,785.00 C613.42,785.00 614.18,784.02 614.55,782.83 C615.36,780.30 616.35,778.98 620.66,774.66 C625.27,770.05 625.91,769.63 632.50,766.96 C635.80,765.62 638.79,764.12 639.14,763.63 C639.49,763.14 640.18,762.99 640.67,763.30 C641.16,763.60 643.71,763.39 646.32,762.84 C653.35,761.34 666.91,763.38 674.76,767.13 C681.50,770.34 690.64,778.60 692.87,783.50 C693.62,785.15 694.65,787.31 695.15,788.29 C696.46,790.85 695.44,791.91 690.92,792.63 C688.74,792.98 686.71,793.65 686.42,794.13 C686.12,794.61 684.32,795.00 682.42,795.00 C679.70,795.00 678.71,794.47 677.82,792.50 C677.19,791.12 676.27,790.00 675.78,790.00 C675.29,790.00 675.12,789.62 675.41,789.15 C675.70,788.68 674.33,786.99 672.37,785.40 C670.40,783.80 668.28,782.05 667.65,781.50 C665.52,779.65 659.39,778.00 654.62,778.00 C649.08,778.00 641.00,779.85 641.00,781.12 C641.00,781.60 640.39,782.00 639.65,782.00 C637.23,782.00 630.93,789.11 628.25,794.86 C625.92,799.87 625.63,801.73 625.63,811.50 C625.63,820.53 626.02,823.44 627.81,827.78 C629.92,832.88 635.84,840.00 637.97,840.00 C638.53,840.00 639.00,840.48 639.00,841.06 C639.00,841.64 639.45,841.84 640.00,841.50 C640.55,841.16 641.00,841.31 641.00,841.82 C641.00,843.42 649.17,844.88 656.13,844.51 C666.39,843.97 674.38,838.75 677.89,830.27 L 679.18 827.15 L 683.11 828.54 C685.27,829.30 687.70,829.67 688.52,829.35 C689.33,829.04 690.00,829.23 690.00,829.77 C690.00,830.31 691.35,831.02 693.00,831.35 L 696.00 831.95 L 693.75 836.72 C691.23,842.08 690.83,842.60 684.22,849.23 C681.35,852.10 677.34,854.82 674.00,856.14 C670.97,857.34 668.04,858.68 667.47,859.10 ZM 482.50 856.01 L 481.84 859.00 L 463.03 859.00 L 461.37 855.25 C460.45,853.19 459.55,850.68 459.35,849.67 C459.15,848.67 458.45,846.87 457.79,845.67 C457.14,844.48 456.46,842.70 456.30,841.72 C456.14,840.75 455.26,838.27 454.34,836.22 C452.44,831.96 452.62,832.50 451.61,828.25 C451.19,826.46 450.35,825.00 449.75,825.00 C449.16,825.00 448.94,824.73 449.28,824.39 C449.78,823.88 446.41,813.66 442.22,803.00 C441.68,801.62 441.14,800.05 441.02,799.50 C440.90,798.95 440.31,797.60 439.70,796.50 C439.09,795.40 438.50,793.91 438.38,793.19 C437.86,790.08 432.52,776.43 431.56,775.77 C430.98,775.36 430.81,775.02 431.20,775.02 C431.58,775.01 431.04,772.53 430.00,769.50 L 428.11 764.00 L 446.61 764.00 L 448.90 770.25 C450.15,773.69 451.77,778.53 452.48,781.00 C453.70,785.21 456.10,791.91 458.03,796.50 C458.49,797.60 459.41,800.30 460.07,802.50 C460.73,804.70 462.57,809.94 464.15,814.13 C465.74,818.33 467.73,824.18 468.57,827.13 C471.22,836.44 472.10,838.16 473.56,836.95 C474.81,835.91 476.51,830.44 475.83,829.67 C475.65,829.47 476.06,828.63 476.76,827.79 C478.36,825.87 482.12,815.01 481.20,814.98 C480.81,814.98 481.00,814.64 481.60,814.23 C482.58,813.58 485.89,804.89 486.37,801.71 C486.47,801.04 486.87,800.00 487.25,799.39 C488.55,797.31 496.92,773.00 496.34,773.00 C496.02,773.00 496.26,772.40 496.87,771.66 C497.48,770.92 497.69,770.02 497.32,769.66 C496.96,769.30 497.14,769.00 497.72,769.00 C498.31,769.00 499.07,767.88 499.41,766.50 C500.02,764.08 500.30,764.00 508.60,764.00 L 517.16 764.00 L 516.45 767.25 C516.06,769.04 514.71,772.76 513.45,775.52 C509.56,784.03 507.00,790.98 507.00,793.04 C507.00,794.12 506.55,795.00 506.00,795.00 C505.45,795.00 505.00,795.71 505.00,796.58 C505.00,798.35 500.72,810.00 498.47,814.33 C497.66,815.89 497.00,817.94 497.00,818.88 C497.00,819.83 496.58,821.03 496.07,821.55 C495.56,822.07 494.48,824.30 493.68,826.50 C490.48,835.25 486.82,844.59 485.93,846.24 C485.42,847.19 485.00,848.85 485.00,849.93 C485.00,851.00 484.58,852.14 484.08,852.45 C483.57,852.77 482.86,854.37 482.50,856.01 ZM 936.90 644.50 C937.02,639.53 936.70,637.00 935.96,637.00 C935.20,637.00 934.95,639.29 935.17,643.97 L 935.50 650.93 L 927.00 651.26 L 918.50 651.59 L 935.49 651.97 L 927.75 652.21 L 918.50 652.50 L 918.23 671.00 C917.99,687.05 918.18,689.93 919.70,692.75 C922.38,697.72 927.46,698.83 936.25,696.36 C937.81,695.92 938.00,696.73 938.00,703.98 L 938.00 712.10 L 934.53 713.55 C931.46,714.84 922.19,715.42 919.50,714.50 C918.95,714.31 916.39,713.87 913.82,713.53 C910.24,713.05 908.16,711.98 905.01,709.01 C902.74,706.87 900.98,704.98 901.10,704.81 C901.22,704.64 900.73,702.71 900.01,700.52 C898.54,696.06 898.51,695.66 898.21,670.30 L 898.00 652.10 L 885.50 651.50 L 885.21 643.80 L 884.92 636.10 L 891.21 635.80 L 897.50 635.50 L 897.79 625.81 C898.09,615.40 898.41,614.86 904.50,614.45 C905.60,614.37 909.09,613.96 912.25,613.54 L 918.00 612.77 L 918.00 636.00 L 937.00 636.00 L 937.00 651.92 L 936.73 651.93 ZM 414.00 602.00 L 414.00 713.00 L 405.17 713.00 C400.31,713.00 396.03,712.70 395.67,712.33 C395.30,711.97 395.00,686.99 395.00,656.83 L 395.00 602.00 ZM 848.18 690.75 L 847.86 713.00 L 829.00 713.00 L 829.00 636.00 L 847.00 636.00 L 847.00 641.94 C847.00,645.21 847.41,648.14 847.92,648.45 C848.43,648.76 849.90,647.10 851.19,644.76 C854.54,638.67 861.44,635.05 869.75,635.02 L 876.00 635.00 L 876.00 653.71 L 868.00 654.26 C857.90,654.95 854.32,656.91 851.00,663.52 C848.59,668.31 848.49,669.33 848.18,690.75 ZM 333.34 696.57 C337.39,698.36 348.09,697.61 352.38,695.23 C355.37,693.57 358.81,689.92 358.15,689.11 C357.97,688.90 358.35,688.40 358.98,688.01 C359.61,687.62 360.29,686.44 360.49,685.40 C360.69,684.35 360.91,683.50 361.00,683.50 C361.57,683.50 362.35,677.77 362.27,674.25 C362.12,668.22 361.86,666.67 360.74,665.25 C360.20,664.56 360.05,664.00 360.40,664.00 C361.65,664.00 358.16,658.47 355.35,656.00 C349.34,650.72 340.68,649.44 333.33,652.75 C325.40,656.32 323.17,659.97 322.34,670.74 C321.22,685.36 324.29,692.57 333.34,696.57 ZM 240.39 698.68 C241.27,699.17 244.69,699.68 247.97,699.81 C260.03,700.29 268.00,693.77 268.00,683.43 L 268.00 680.00 L 260.65 680.00 C246.92,680.00 241.46,680.99 238.08,684.08 C233.08,688.64 234.11,695.16 240.39,698.68 ZM 764.61 698.30 C767.42,699.77 779.23,700.11 780.58,698.75 C781.00,698.34 782.30,698.00 783.47,698.00 C784.65,698.00 787.07,696.49 788.86,694.64 C791.52,691.90 792.22,690.23 792.71,685.56 L 793.30 679.83 L 781.40 680.28 C767.03,680.83 766.62,680.92 762.93,684.40 C758.53,688.56 759.37,695.56 764.61,698.30 ZM 448.42 662.78 L 447.74 667.00 L 483.00 667.00 L 483.00 664.65 C483.00,657.95 476.34,650.47 469.44,649.44 C458.92,647.86 449.89,653.60 448.42,662.78 ZM 545.00 818.94 C545.00,820.91 545.54,821.00 557.00,821.00 C565.87,821.00 569.03,820.67 569.12,819.75 C569.32,817.57 568.85,815.60 567.26,812.00 C566.40,810.08 565.60,808.04 565.47,807.47 C564.48,803.08 561.49,795.00 560.85,795.00 C560.42,795.00 560.32,794.33 560.64,793.50 C560.95,792.67 560.69,792.00 560.05,792.00 C559.41,792.00 559.14,791.58 559.46,791.07 C559.77,790.56 559.59,789.87 559.06,789.54 C558.53,789.21 558.34,788.28 558.65,787.47 C558.98,786.61 558.63,786.00 557.80,786.00 C557.00,786.00 555.62,788.25 554.60,791.25 C552.37,797.74 549.32,806.01 546.86,812.19 C545.84,814.76 545.00,817.80 545.00,818.94 ZM 630.75 688.00 C630.89,673.97 631.13,661.83 631.29,661.00 C631.62,659.30 632.35,657.92 633.71,656.59 C631.40,659.82 631.37,666.42 631.00,686.35 L 630.50 713.50 ZM 629.99 638.12 L 630.00 635.00 L 630.25 635.00 ZM 411.50 859.00 L 411.50 859.00 L 411.50 859.50 L 409.42 859.57 C410.58,859.42 411.36,859.22 411.50,859.00 ZM 393.15 763.94 L 393.13 766.61 C393.12,765.28 393.10,764.44 393.07,764.25 C393.06,764.14 393.08,764.03 393.15,763.94 ZM 393.55 859.06 C393.53,859.05 393.52,859.03 393.51,859.02 C393.41,858.86 393.33,858.08 393.26,856.81 C393.34,857.88 393.43,858.67 393.55,859.06 ZM 412.00 766.57 L 412.00 763.00 L 412.02 763.00 ZM 184.03 712.52 C184.03,712.97 184.03,713.24 184.03,713.29 C184.02,713.47 184.78,713.61 186.07,713.71 C184.78,713.61 184.01,713.47 184.01,713.29 C184.02,713.04 184.02,712.79 184.03,712.52 Z" fill="rgb(5,49,79)"/>
<path d="M 709.13 331.75 C709.06,332.44 708.50,333.00 707.89,333.00 C707.18,333.00 707.03,332.00 707.46,330.25 C708.35,326.67 709.80,325.19 709.49,328.18 C709.36,329.46 709.20,331.06 709.13,331.75 Z" fill="rgb(206,51,36)"/>
<path d="M 521.43 560.43 C519.31,562.55 502.82,562.70 501.09,560.61 C500.24,559.58 500.01,539.89 500.22,484.78 L 500.50 410.34 L 503.38 406.42 C509.15,398.56 526.43,381.50 530.65,379.50 C533.11,378.33 538.06,378.00 553.27,378.00 L 572.73 378.00 L 575.34 381.94 C580.11,389.15 590.75,393.22 599.00,391.00 C604.44,389.54 612.09,383.15 614.70,377.90 C616.46,374.37 616.84,372.11 616.59,366.72 C616.16,357.54 612.64,351.79 605.00,347.75 C600.04,345.14 598.83,344.90 592.65,345.38 C585.99,345.89 582.81,347.19 579.05,350.95 C578.04,351.96 576.61,353.16 575.86,353.64 C575.11,354.11 573.74,356.16 572.80,358.18 L 571.10 361.86 L 549.80 362.18 C528.52,362.50 528.49,362.50 523.50,365.33 C517.44,368.76 507.39,378.38 497.23,390.48 C493.09,395.40 490.42,398.34 488.68,401.76 C485.25,408.47 485.39,417.01 485.00,445.96 L 484.50 483.42 L 481.00 484.22 C479.08,484.66 475.25,485.44 472.50,485.95 C469.75,486.46 466.04,487.19 464.25,487.57 L 461.00 488.25 L 461.00 432.75 C461.00,387.30 461.26,376.52 462.42,373.22 C463.21,371.00 463.58,368.92 463.26,368.59 C462.93,368.27 463.16,368.00 463.77,368.00 C464.37,368.00 465.18,366.99 465.56,365.75 C465.94,364.51 475.95,353.73 487.80,341.78 C499.65,329.84 509.60,319.71 509.93,319.28 C510.25,318.85 513.49,315.70 517.14,312.28 L 523.77 306.05 L 530.26 306.66 C535.83,307.18 537.50,306.92 542.17,304.78 C547.70,302.25 552.99,296.80 554.97,291.58 C556.16,288.45 556.36,277.69 555.25,276.58 C554.84,276.17 554.44,275.42 554.38,274.92 C554.31,274.41 554.19,273.61 554.12,273.14 C554.06,272.67 552.17,270.20 549.93,267.66 C543.48,260.33 532.92,258.04 524.07,262.06 C513.37,266.91 508.23,277.71 511.17,289.17 L 512.63 294.85 L 486.16 321.17 C463.74,343.46 456.61,351.09 451.24,358.53 C449.54,360.88 446.97,366.79 445.81,371.00 C444.91,374.27 444.49,391.23 444.27,433.17 L 443.97 490.85 L 440.73 491.48 C438.96,491.82 435.48,492.51 433.00,493.01 C430.52,493.50 426.02,494.36 423.00,494.91 C419.98,495.46 412.53,496.86 406.45,498.00 C400.38,499.15 394.68,499.82 393.80,499.48 C390.70,498.29 391.29,495.07 397.08,481.85 C400.75,473.46 402.93,467.08 402.96,464.67 C403.01,459.77 402.48,459.25 373.00,435.67 C372.17,435.01 368.75,432.23 365.40,429.48 C362.04,426.74 357.33,422.92 354.93,421.00 C352.53,419.08 348.00,415.38 344.87,412.79 C341.74,410.20 335.20,404.92 330.34,401.05 C306.68,382.25 296.53,373.54 296.18,371.71 C295.94,370.47 298.73,368.70 307.18,364.70 C313.41,361.76 319.11,358.61 319.85,357.70 C321.40,355.81 320.80,344.67 319.05,342.55 C318.48,341.87 318.24,341.10 318.51,340.83 C318.94,340.39 316.84,331.94 315.32,328.00 C315.00,327.17 314.61,325.60 314.45,324.50 C314.29,323.40 313.03,318.62 311.65,313.88 C310.27,309.13 308.83,303.62 308.46,301.62 C308.08,299.61 307.37,297.73 306.87,297.42 C306.37,297.11 306.21,296.46 306.52,295.97 C306.82,295.49 306.46,293.61 305.73,291.79 C305.00,289.98 304.56,287.74 304.76,286.82 C305.30,284.32 312.81,283.44 317.09,285.38 C317.97,285.77 320.22,286.23 322.09,286.39 C323.97,286.55 326.34,287.05 327.36,287.49 C328.38,287.94 330.63,288.34 332.36,288.40 C334.09,288.45 335.75,288.84 336.06,289.26 C336.38,289.68 338.63,290.13 341.06,290.26 C343.50,290.39 345.73,290.76 346.00,291.08 C346.27,291.40 350.38,292.43 355.12,293.36 C364.71,295.24 367.84,294.70 370.45,290.72 C372.36,287.80 377.18,273.85 376.51,273.17 C376.24,272.90 376.40,272.19 376.88,271.59 C377.35,270.99 378.28,268.81 378.95,266.75 C380.22,262.80 382.32,261.95 385.17,264.25 C386.03,264.94 391.43,270.71 397.19,277.07 C402.94,283.43 408.51,289.54 409.57,290.64 C410.63,291.74 415.10,296.66 419.50,301.57 C434.27,318.05 435.09,318.63 440.04,315.98 C443.44,314.16 443.94,311.86 442.43,304.96 C441.65,301.41 440.76,296.48 440.44,294.00 C440.12,291.52 439.18,286.35 438.35,282.50 C437.52,278.65 436.67,274.49 436.45,273.25 C436.23,272.01 435.80,269.76 435.50,268.25 C435.19,266.74 434.89,264.83 434.84,264.00 C434.78,263.17 433.90,258.23 432.87,253.00 C431.85,247.77 430.80,241.93 430.55,240.00 C430.30,238.07 429.39,233.35 428.53,229.50 C427.68,225.65 426.74,220.53 426.46,218.12 C426.18,215.71 425.70,213.33 425.40,212.83 C425.09,212.34 424.64,210.26 424.39,208.22 C424.15,206.17 423.71,203.73 423.42,202.79 C422.99,201.41 424.13,197.86 425.54,196.18 C425.68,196.01 430.64,198.14 436.55,200.93 C442.46,203.72 448.13,206.00 449.15,206.00 C450.17,206.00 451.00,206.38 451.00,206.84 C451.00,207.85 455.49,210.00 457.62,210.00 C458.46,210.00 459.82,210.68 460.64,211.50 C461.47,212.32 462.72,213.00 463.42,213.00 C466.30,213.00 471.39,208.14 474.43,202.50 C476.21,199.20 482.34,188.18 488.05,178.00 C493.75,167.82 499.57,157.27 500.96,154.55 C502.36,151.84 503.85,149.14 504.29,148.55 C504.72,147.97 506.39,145.36 508.01,142.75 C509.63,140.14 511.54,138.00 512.24,138.00 C514.07,138.00 520.07,147.97 540.52,185.00 C553.27,208.08 556.47,212.35 560.93,212.22 C562.46,212.18 570.71,208.74 579.26,204.57 C594.60,197.10 599.55,195.67 600.60,198.39 C601.19,199.94 599.91,209.54 597.58,221.00 C595.88,229.34 590.41,258.82 589.69,263.50 C588.99,268.02 584.19,293.86 583.09,299.00 C580.58,310.74 580.74,316.00 583.61,316.00 C584.37,316.00 585.00,316.41 585.00,316.91 C585.00,317.41 585.79,317.67 586.75,317.49 C587.71,317.30 588.98,317.12 589.56,317.08 C590.41,317.02 610.52,295.67 637.08,266.62 C639.97,263.46 641.15,262.82 643.12,263.31 C645.02,263.79 645.84,264.99 646.82,268.71 C651.89,287.98 655.36,295.06 659.70,294.96 C660.69,294.94 665.55,294.02 670.50,292.92 C675.45,291.81 681.08,290.68 683.00,290.41 C684.92,290.13 689.42,289.24 693.00,288.42 C696.58,287.61 701.30,286.71 703.50,286.43 C705.70,286.16 708.17,285.65 709.00,285.30 C710.99,284.47 716.05,284.16 718.35,284.74 C720.69,285.32 720.46,286.83 715.07,306.50 C712.81,314.75 710.54,323.75 710.03,326.50 C709.84,327.53 709.59,328.71 709.32,329.88 C709.38,329.32 709.44,328.72 709.49,328.18 C709.80,325.19 708.35,326.67 707.46,330.25 C707.03,332.00 707.18,333.00 707.89,333.00 C708.16,333.00 708.42,332.89 708.63,332.71 C708.40,333.60 708.17,334.39 707.98,335.00 C705.29,343.43 703.40,352.85 704.06,354.60 C705.29,357.90 710.22,361.41 719.16,365.39 C724.76,367.87 728.00,369.91 728.32,371.12 C728.71,372.59 725.58,375.62 714.23,384.75 C706.21,391.21 698.34,397.74 696.75,399.25 C695.15,400.76 693.67,402.00 693.45,402.00 C692.60,402.00 659.32,428.42 657.00,430.93 C656.17,431.82 649.88,436.99 643.00,442.42 C625.54,456.21 621.00,460.73 621.00,464.34 C621.00,467.21 622.78,471.88 629.73,487.32 C632.71,493.91 633.08,495.52 632.15,497.57 C630.87,500.37 630.12,500.44 620.00,498.60 C594.35,493.94 532.82,483.98 529.75,483.99 C528.24,484.00 526.10,484.90 525.00,486.00 C523.08,487.92 523.00,489.33 523.00,523.43 C523.00,554.30 522.80,559.06 521.43,560.43 ZM 599.33 374.96 C591.91,380.79 582.12,372.47 586.48,364.03 C589.53,358.15 597.21,357.67 601.09,363.12 C603.79,366.92 603.03,372.05 599.33,374.96 ZM 539.41 288.92 C534.14,295.18 524.98,291.72 524.47,283.28 C524.16,278.20 527.49,275.00 533.10,275.00 C540.98,275.00 544.54,282.83 539.41,288.92 Z" fill="rgb(240,71,41)"/>
<path d="M 0.00 512.00 L 0.00 0.00 L 512.00 0.00 L 1024.00 0.00 L 1024.00 512.00 L 1024.00 1024.00 L 512.00 1024.00 L 0.00 1024.00 L 0.00 512.00 ZM 667.47 859.10 C668.04,858.68 670.97,857.34 674.00,856.14 C677.34,854.82 681.35,852.10 684.22,849.23 C690.83,842.60 691.23,842.08 693.75,836.72 L 696.00 831.95 L 693.00 831.35 C691.35,831.02 690.00,830.31 690.00,829.77 C690.00,829.23 689.33,829.04 688.52,829.35 C687.70,829.67 685.27,829.30 683.11,828.54 L 679.18 827.15 L 677.89 830.27 C674.38,838.75 666.39,843.97 656.13,844.51 C649.17,844.88 641.00,843.42 641.00,841.82 C641.00,841.31 640.55,841.16 640.00,841.50 C639.45,841.84 639.00,841.64 639.00,841.06 C639.00,840.48 638.53,840.00 637.97,840.00 C635.84,840.00 629.92,832.88 627.81,827.78 C626.02,823.44 625.63,820.53 625.63,811.50 C625.63,801.73 625.92,799.87 628.25,794.86 C630.93,789.11 637.23,782.00 639.65,782.00 C640.39,782.00 641.00,781.60 641.00,781.12 C641.00,779.85 649.08,778.00 654.62,778.00 C659.39,778.00 665.52,779.65 667.65,781.50 C668.28,782.05 670.40,783.80 672.37,785.40 C674.33,786.99 675.70,788.68 675.41,789.15 C675.12,789.62 675.29,790.00 675.78,790.00 C676.27,790.00 677.19,791.12 677.82,792.50 C678.71,794.47 679.70,795.00 682.42,795.00 C684.32,795.00 686.12,794.61 686.42,794.13 C686.71,793.65 688.74,792.98 690.92,792.63 C695.44,791.91 696.46,790.85 695.15,788.29 C694.65,787.31 693.62,785.15 692.87,783.50 C690.64,778.60 681.50,770.34 674.76,767.13 C666.91,763.38 653.35,761.34 646.32,762.84 C643.71,763.39 641.16,763.60 640.67,763.30 C640.18,762.99 639.49,763.14 639.14,763.63 C638.79,764.12 635.80,765.62 632.50,766.96 C625.91,769.63 625.27,770.05 620.66,774.66 C616.35,778.98 615.36,780.30 614.55,782.83 C614.18,784.02 613.42,785.00 612.87,785.00 C612.33,785.00 612.16,785.45 612.50,786.00 C612.84,786.55 612.74,787.00 612.27,787.00 C611.81,787.00 611.36,787.79 611.27,788.75 C611.18,789.71 610.27,793.03 609.24,796.12 C607.05,802.64 606.95,817.28 609.03,825.50 C612.32,838.49 621.36,850.82 630.75,855.13 C641.48,860.07 645.92,860.98 656.47,860.41 C661.96,860.12 666.91,859.53 667.47,859.10 ZM 411.76 811.25 L 412.02 763.00 L 402.47 763.00 C395.40,763.00 392.95,763.33 393.07,764.25 C393.16,764.94 393.18,773.94 393.12,784.25 L 393.00 803.00 L 372.02 803.00 L 351.04 803.00 L 350.77 783.75 L 350.50 764.50 L 341.75 764.21 L 333.00 763.92 L 333.00 811.50 L 333.00 859.08 L 341.75 858.79 L 350.50 858.50 L 350.72 840.50 C350.84,830.60 350.95,821.60 350.97,820.50 C351.00,818.55 351.50,818.51 372.16,819.00 L 393.33 819.50 L 393.09 838.73 C392.96,849.31 393.15,858.44 393.51,859.02 C393.91,859.67 397.51,859.96 402.83,859.79 L 411.50 859.50 L 411.76 811.25 ZM 482.50 856.01 C482.86,854.37 483.57,852.77 484.08,852.45 C484.58,852.14 485.00,851.00 485.00,849.93 C485.00,848.85 485.42,847.19 485.93,846.24 C486.82,844.59 490.48,835.25 493.68,826.50 C494.48,824.30 495.56,822.07 496.07,821.55 C496.58,821.03 497.00,819.83 497.00,818.88 C497.00,817.94 497.66,815.89 498.47,814.33 C500.72,810.00 505.00,798.35 505.00,796.58 C505.00,795.71 505.45,795.00 506.00,795.00 C506.55,795.00 507.00,794.12 507.00,793.04 C507.00,790.98 509.56,784.03 513.45,775.52 C514.71,772.76 516.06,769.04 516.45,767.25 L 517.16 764.00 L 508.60 764.00 C500.30,764.00 500.02,764.08 499.41,766.50 C499.07,767.88 498.31,769.00 497.72,769.00 C497.14,769.00 496.96,769.30 497.32,769.66 C497.69,770.02 497.48,770.92 496.87,771.66 C496.26,772.40 496.02,773.00 496.34,773.00 C496.92,773.00 488.55,797.31 487.25,799.39 C486.87,800.00 486.47,801.04 486.37,801.71 C485.89,804.89 482.58,813.58 481.60,814.23 C481.00,814.64 480.81,814.98 481.20,814.98 C482.12,815.01 478.36,825.87 476.76,827.79 C476.06,828.63 475.65,829.47 475.83,829.67 C476.51,830.44 474.81,835.91 473.56,836.95 C472.10,838.16 471.22,836.44 468.57,827.13 C467.73,824.18 465.74,818.33 464.15,814.13 C462.57,809.94 460.73,804.70 460.07,802.50 C459.41,800.30 458.49,797.60 458.03,796.50 C456.10,791.91 453.70,785.21 452.48,781.00 C451.77,778.53 450.15,773.69 448.90,770.25 L 446.61 764.00 L 437.36 764.00 L 428.11 764.00 L 430.00 769.50 C431.04,772.53 431.58,775.01 431.20,775.02 C430.81,775.02 430.98,775.36 431.56,775.77 C432.52,776.43 437.86,790.08 438.38,793.19 C438.50,793.91 439.09,795.40 439.70,796.50 C440.31,797.60 440.90,798.95 441.02,799.50 C441.14,800.05 441.68,801.62 442.22,803.00 C446.41,813.66 449.78,823.88 449.28,824.39 C448.94,824.73 449.16,825.00 449.75,825.00 C450.35,825.00 451.19,826.46 451.61,828.25 C452.62,832.50 452.44,831.96 454.34,836.22 C455.26,838.27 456.14,840.75 456.30,841.72 C456.46,842.70 457.14,844.48 457.79,845.67 C458.45,846.87 459.15,848.67 459.35,849.67 C459.55,850.68 460.45,853.19 461.37,855.25 L 463.03 859.00 L 472.43 859.00 L 481.84 859.00 L 482.50 856.01 ZM 531.70 854.25 C532.90,851.64 534.16,848.04 534.52,846.25 C534.87,844.46 535.57,843.00 536.08,843.00 C536.59,843.00 537.00,842.04 537.00,840.86 C537.00,836.65 539.43,836.07 557.06,836.03 C574.42,836.00 576.59,836.48 577.34,840.50 C577.54,841.60 578.38,844.08 579.19,846.00 C580.01,847.92 581.46,851.64 582.42,854.25 L 584.17 859.00 L 593.08 859.00 C601.72,859.00 602.00,858.93 602.00,856.70 C602.00,855.43 601.61,853.97 601.12,853.45 C600.64,852.93 599.46,850.03 598.49,847.00 C597.53,843.97 596.42,841.05 596.04,840.50 C595.66,839.95 594.56,837.25 593.61,834.50 C592.65,831.75 591.28,828.38 590.56,827.00 C589.85,825.62 588.71,822.70 588.04,820.50 C587.37,818.30 586.04,814.70 585.07,812.50 C584.11,810.30 582.74,806.36 582.03,803.75 C581.32,801.14 580.35,799.00 579.87,799.00 C579.39,799.00 579.00,798.08 579.00,796.95 C579.00,795.81 578.16,793.00 577.13,790.70 C574.80,785.49 569.45,771.53 568.24,767.50 L 567.33 764.50 L 558.03 764.50 L 548.72 764.50 L 546.66 770.00 C545.53,773.03 544.36,775.72 544.05,776.00 C543.75,776.28 543.36,777.31 543.20,778.29 C543.03,779.28 541.95,782.20 540.79,784.79 C539.64,787.38 538.53,790.32 538.34,791.33 C538.15,792.33 537.45,794.13 536.78,795.33 C536.12,796.52 535.55,797.72 535.53,798.00 C535.39,799.92 531.44,810.00 530.82,810.00 C530.41,810.00 530.30,810.62 530.59,811.37 C530.88,812.13 530.40,813.46 529.52,814.34 C528.65,815.21 527.96,816.17 528.00,816.48 C528.22,818.11 525.53,825.00 524.68,825.00 C524.12,825.00 523.93,825.27 524.26,825.60 C524.84,826.17 521.16,836.98 520.05,838.00 C519.75,838.28 519.34,839.40 519.15,840.50 C518.96,841.60 518.36,842.78 517.81,843.11 C517.27,843.45 516.98,843.90 517.16,844.11 C517.66,844.71 514.76,853.00 514.05,853.00 C513.71,853.00 513.32,854.35 513.20,856.00 L 512.97 859.00 L 521.25 859.00 L 529.53 859.00 L 531.70 854.25 ZM 321.96 742.07 C322.56,740.95 323.00,732.92 323.00,723.07 C323.00,713.68 323.27,706.00 323.60,706.00 C323.92,706.00 326.17,707.74 328.59,709.87 C333.27,713.99 336.62,714.97 346.00,714.98 C353.62,714.99 358.49,713.48 365.59,708.90 C375.66,702.41 380.39,693.13 381.62,677.50 C382.20,670.18 380.92,659.34 379.15,656.50 C378.81,655.95 378.46,655.28 378.38,655.00 C377.28,651.31 376.62,650.00 375.88,650.00 C375.40,650.00 374.98,649.44 374.96,648.75 C374.88,646.38 369.49,641.25 363.61,637.95 C351.99,631.44 334.38,633.22 326.37,641.71 C324.57,643.62 322.66,644.91 322.13,644.58 C321.60,644.25 321.28,642.19 321.42,639.99 L 321.68 636.00 L 312.34 636.00 L 303.00 636.00 L 303.00 689.33 C303.00,718.67 303.30,742.97 303.67,743.33 C304.03,743.70 308.07,744.00 312.63,744.00 C319.81,744.00 321.07,743.74 321.96,742.07 ZM 478.98 714.02 C485.60,712.22 493.19,706.74 496.82,701.14 C498.57,698.43 500.00,695.79 500.00,695.27 C500.00,694.75 497.30,693.50 494.00,692.50 C490.70,691.50 488.00,690.31 488.00,689.85 C488.00,687.87 483.80,689.94 479.08,694.24 C471.83,700.84 464.09,701.77 456.25,697.00 C452.40,694.66 448.38,688.56 447.46,683.65 L 446.78 680.03 L 474.14 679.77 L 501.50 679.50 L 501.79 670.69 C502.18,658.77 499.74,651.47 492.96,644.25 C490.25,641.36 487.57,639.00 487.01,639.00 C486.46,639.00 486.00,638.52 486.00,637.94 C486.00,637.36 485.55,637.16 485.00,637.50 C484.45,637.84 484.00,637.64 484.00,637.06 C484.00,636.48 483.66,636.06 483.25,636.13 C481.68,636.41 476.00,634.71 476.00,633.96 C476.00,633.13 459.06,633.47 453.01,634.42 C451.08,634.72 449.36,635.42 449.17,635.98 C448.99,636.54 447.97,637.00 446.92,637.00 C445.86,637.00 445.00,637.38 445.00,637.84 C445.00,638.31 443.44,639.53 441.53,640.55 C435.03,644.05 428.38,657.78 427.50,669.50 C427.00,676.21 428.53,686.66 430.97,693.17 C432.89,698.31 439.98,708.10 442.35,708.88 C442.98,709.09 444.22,709.88 445.09,710.64 C446.55,711.91 453.77,714.15 460.00,715.27 C464.04,716.00 474.15,715.33 478.98,714.02 ZM 250.38 713.87 C257.33,711.98 260.66,710.16 263.86,706.50 C265.55,704.58 267.29,703.00 267.72,703.00 C268.15,703.00 268.34,705.27 268.15,708.04 L 267.80 713.08 L 277.15 712.79 L 286.50 712.50 L 286.50 684.50 C286.50,651.95 286.00,648.95 279.45,642.40 C277.16,640.11 273.65,637.64 271.64,636.92 C269.64,636.19 268.00,635.34 268.00,635.02 C268.00,634.20 258.83,633.53 250.36,633.73 C241.54,633.94 229.31,638.26 227.72,641.73 C227.16,642.96 225.87,644.22 224.87,644.54 C223.86,644.86 223.10,645.43 223.17,645.81 C223.25,646.19 222.56,648.17 221.65,650.22 C220.74,652.26 220.00,654.35 220.00,654.85 C220.00,656.63 223.08,658.26 229.74,660.01 L 236.50 661.79 L 237.50 658.64 C238.94,654.11 239.52,653.45 244.24,650.99 C247.62,649.23 249.56,648.88 253.66,649.30 C262.26,650.19 266.44,654.28 267.15,662.51 L 267.50 666.50 L 259.00 667.16 C254.32,667.53 247.57,667.96 244.00,668.11 C240.43,668.27 236.82,668.72 236.00,669.11 C235.18,669.50 232.48,670.55 230.00,671.44 C223.82,673.65 218.85,678.34 217.46,683.25 C217.35,683.66 217.16,684.11 217.05,684.25 C216.94,684.39 216.63,686.40 216.38,688.72 C215.43,697.21 219.98,707.02 226.71,710.99 C232.48,714.40 243.55,715.74 250.38,713.87 ZM 568.79 713.35 C572.48,712.45 576.11,711.23 576.85,710.65 C577.59,710.06 578.82,709.50 579.58,709.39 C580.34,709.27 581.57,708.58 582.31,707.84 C583.05,707.10 585.19,705.14 587.08,703.47 C588.96,701.81 591.81,698.44 593.42,695.99 C596.08,691.92 596.35,690.73 596.41,682.51 C596.47,674.88 596.14,672.95 594.27,669.92 C590.94,664.55 588.00,661.76 582.75,659.00 C580.14,657.63 578.00,656.15 578.00,655.71 C578.00,655.27 577.44,655.02 576.75,655.14 C574.56,655.55 569.00,653.88 569.00,652.81 C569.00,652.25 568.37,652.03 567.60,652.32 C565.89,652.98 547.74,648.14 546.89,646.79 C546.55,646.26 545.99,645.87 545.64,645.91 C543.72,646.17 542.87,645.78 540.46,643.55 C537.22,640.55 536.07,634.10 538.11,630.30 C538.87,628.88 541.17,626.65 543.23,625.36 C546.29,623.42 548.30,623.00 554.46,623.00 C558.93,623.00 563.48,623.62 565.73,624.55 C569.76,626.20 575.00,632.17 575.00,635.10 C575.00,637.86 576.14,638.02 583.58,636.34 C593.60,634.08 595.08,633.23 594.39,630.09 C591.97,619.15 583.61,611.34 569.36,606.70 C563.23,604.70 561.28,604.53 551.00,605.13 C540.91,605.71 538.87,606.14 534.39,608.65 C527.11,612.72 521.69,617.95 518.91,623.60 C516.97,627.54 516.47,630.22 516.36,637.26 C516.28,642.07 516.62,646.27 517.12,646.58 C517.62,646.89 517.77,647.56 517.46,648.07 C517.14,648.58 517.39,649.00 518.00,649.00 C518.61,649.00 518.84,649.45 518.50,650.00 C518.16,650.55 518.36,651.00 518.94,651.00 C519.52,651.00 520.00,651.45 520.00,651.99 C520.00,652.92 523.48,656.55 527.67,660.00 C530.52,662.35 536.39,664.48 551.00,668.50 C565.97,672.61 572.24,675.32 575.09,678.88 C579.05,683.84 576.16,691.30 568.79,695.17 C565.31,697.00 562.84,697.43 555.71,697.46 C549.29,697.49 546.70,697.13 546.08,696.12 C545.61,695.36 544.72,695.05 544.11,695.43 C543.50,695.81 543.00,695.61 543.00,695.00 C543.00,694.39 542.61,694.12 542.14,694.42 C540.88,695.19 535.35,688.77 533.54,684.45 C532.09,680.97 531.81,680.79 528.75,681.49 C526.96,681.90 524.60,682.33 523.50,682.45 C522.40,682.56 520.60,683.00 519.50,683.41 C513.00,685.86 512.92,685.93 513.38,688.74 C513.63,690.26 513.93,691.61 514.04,691.75 C514.27,692.03 514.43,692.47 515.50,695.75 C515.90,696.99 516.63,698.00 517.12,698.00 C517.60,698.00 518.00,698.42 518.00,698.92 C518.00,702.20 531.38,711.33 539.33,713.48 C546.48,715.40 560.69,715.34 568.79,713.35 ZM 780.20 712.19 C783.79,710.93 787.10,708.87 789.19,706.60 C791.00,704.62 792.83,703.00 793.24,703.00 C793.66,703.00 794.00,705.25 794.00,708.00 L 794.00 713.00 L 803.00 713.00 L 812.00 713.00 L 811.99 684.75 C811.99,658.39 811.27,649.50 809.03,648.00 C808.62,647.72 807.55,646.08 806.66,644.34 C805.01,641.12 794.68,635.00 790.90,635.00 C789.92,635.00 788.89,634.64 788.62,634.20 C788.07,633.31 770.40,633.37 768.00,634.26 C767.17,634.57 764.92,635.33 763.00,635.94 C759.30,637.12 750.01,643.02 750.00,644.19 C750.00,644.57 749.00,646.58 747.78,648.65 C746.56,650.72 745.44,653.21 745.29,654.19 C744.96,656.34 748.38,658.74 753.05,659.63 C754.95,659.99 757.32,660.70 758.31,661.21 C760.65,662.41 763.00,660.54 763.00,657.50 C763.00,654.63 768.83,650.06 773.44,649.32 C778.99,648.42 786.48,650.73 789.38,654.23 C791.86,657.21 793.81,664.88 792.60,666.84 C792.27,667.37 791.14,667.59 790.09,667.31 C786.80,666.45 761.70,668.84 757.15,670.45 C746.52,674.20 741.61,681.56 742.15,692.97 C742.60,702.60 745.72,707.49 754.10,711.72 C756.52,712.95 759.40,714.15 760.50,714.39 C764.48,715.28 774.64,714.14 780.20,712.19 ZM 934.53 713.55 L 938.00 712.10 L 938.00 703.98 C938.00,696.73 937.81,695.92 936.25,696.36 C927.46,698.83 922.38,697.72 919.70,692.75 C918.18,689.93 917.99,687.05 918.23,671.00 L 918.50 652.50 L 927.75 652.21 L 937.00 651.92 L 937.00 643.96 L 937.00 636.00 L 927.50 636.00 L 918.00 636.00 L 918.00 624.38 L 918.00 612.77 L 912.25 613.54 C909.09,613.96 905.60,614.37 904.50,614.45 C898.41,614.86 898.09,615.40 897.79,625.81 L 897.50 635.50 L 891.21 635.80 L 884.92 636.10 L 885.21 643.80 L 885.50 651.50 L 891.75 651.80 L 898.00 652.10 L 898.21 670.30 C898.51,695.66 898.54,696.06 900.01,700.52 C900.73,702.71 901.22,704.64 901.10,704.81 C900.98,704.98 902.74,706.87 905.01,709.01 C908.16,711.98 910.24,713.05 913.82,713.53 C916.39,713.87 918.95,714.31 919.50,714.50 C922.19,715.42 931.46,714.84 934.53,713.55 ZM 203.23 679.00 C203.08,660.03 202.68,636.06 202.35,625.75 L 201.74 607.00 L 190.05 607.00 L 178.36 607.00 L 175.17 614.75 C173.42,619.01 171.99,623.06 171.99,623.75 C172.00,624.44 171.52,625.00 170.94,625.00 C170.36,625.00 170.16,625.45 170.50,626.00 C170.84,626.55 170.64,627.00 170.06,627.00 C169.48,627.00 169.07,627.34 169.16,627.75 C169.46,629.09 167.80,634.00 167.06,634.00 C166.66,634.00 166.33,634.56 166.33,635.25 C166.33,635.94 163.16,643.70 159.29,652.50 C155.42,661.30 151.64,669.96 150.88,671.75 C150.13,673.54 149.06,674.99 148.51,674.98 C147.60,674.95 145.11,670.12 140.02,658.50 C139.05,656.30 137.56,652.92 136.70,650.98 C134.24,645.49 132.72,641.62 132.42,640.16 C132.27,639.43 131.52,638.08 130.75,637.16 C129.98,636.25 127.40,631.00 125.03,625.50 C122.65,620.00 119.76,613.59 118.60,611.25 L 116.50 607.00 L 105.25 607.00 L 94.00 607.00 L 94.00 660.00 L 94.00 713.00 L 103.00 713.00 L 112.00 713.00 L 112.00 678.00 C112.00,646.97 112.18,643.00 113.56,643.00 C114.42,643.00 114.84,643.45 114.50,644.00 C114.16,644.55 114.32,645.00 114.86,645.00 C115.84,645.00 118.60,651.81 118.20,653.25 C118.09,653.66 118.36,654.00 118.80,654.00 C119.65,654.00 122.54,661.00 122.20,662.25 C122.09,662.66 122.42,663.00 122.92,663.00 C123.79,663.00 126.61,670.05 126.07,670.89 C125.94,671.10 126.22,671.55 126.69,671.89 C127.83,672.69 134.33,687.00 134.33,688.69 C134.33,689.41 134.73,690.00 135.23,690.00 C135.72,690.00 135.84,690.45 135.50,691.00 C135.16,691.55 135.36,692.00 135.94,692.00 C136.52,692.00 136.90,692.34 136.79,692.75 C136.67,693.16 137.23,694.51 138.03,695.75 C139.35,697.80 140.25,698.00 148.23,698.00 L 156.98 698.00 L 161.02 689.25 C163.25,684.44 166.15,678.25 167.47,675.50 C171.10,667.91 173.54,662.42 177.89,652.02 C180.07,646.81 182.22,642.43 182.68,642.28 C183.26,642.08 184.29,696.89 184.01,713.29 C184.01,713.72 188.39,713.94 193.75,713.79 L 203.50 713.50 L 203.23 679.00 ZM 631.00 686.35 C631.56,655.70 631.34,656.57 639.82,652.78 C643.05,651.33 645.19,651.02 648.32,651.55 C652.78,652.29 658.36,655.60 657.51,656.99 C657.22,657.45 657.55,658.02 658.24,658.25 C659.19,658.56 659.62,665.23 660.00,685.58 L 660.50 712.50 L 670.00 712.50 L 679.50 712.50 L 680.00 686.00 C680.46,661.84 680.67,659.25 682.45,656.61 C687.02,649.88 699.05,649.11 705.16,655.17 C708.77,658.76 709.00,660.65 709.00,686.93 L 709.00 713.00 L 718.50 713.00 C727.67,713.00 728.00,712.92 728.07,710.75 C728.47,697.25 728.06,654.53 727.50,652.00 C726.25,646.33 721.84,640.20 717.27,637.77 C714.92,636.52 713.00,635.25 713.00,634.95 C713.00,634.64 709.55,634.28 705.32,634.15 C701.10,634.01 697.26,633.66 696.78,633.36 C696.30,633.07 695.37,633.27 694.71,633.81 C694.04,634.35 691.70,635.33 689.50,635.98 C685.57,637.15 679.00,642.09 679.00,643.88 C679.00,644.38 678.31,645.05 677.46,645.38 C676.47,645.76 674.79,644.69 672.80,642.43 C669.63,638.82 663.33,635.00 660.54,635.00 C659.69,635.00 659.00,634.66 659.00,634.25 C659.00,633.84 656.11,633.54 652.58,633.60 C644.47,633.72 635.94,637.57 632.69,642.59 C631.49,644.45 630.24,645.98 629.92,645.99 C629.60,645.99 629.54,643.53 629.79,640.50 L 630.25 635.00 L 620.12 635.00 L 610.00 635.00 L 610.00 673.83 C610.00,695.19 610.32,712.98 610.70,713.37 C611.09,713.75 615.70,713.94 620.95,713.78 L 630.50 713.50 L 631.00 686.35 ZM 414.00 657.50 L 414.00 602.00 L 404.50 602.00 L 395.00 602.00 L 395.00 656.83 C395.00,686.99 395.30,711.97 395.67,712.33 C396.03,712.70 400.31,713.00 405.17,713.00 L 414.00 713.00 L 414.00 657.50 ZM 848.18 690.75 C848.49,669.33 848.59,668.31 851.00,663.52 C854.32,656.91 857.90,654.95 868.00,654.26 L 876.00 653.71 L 876.00 644.36 L 876.00 635.00 L 869.75 635.02 C861.44,635.05 854.54,638.67 851.19,644.76 C849.90,647.10 848.43,648.76 847.92,648.45 C847.41,648.14 847.00,645.21 847.00,641.94 L 847.00 636.00 L 838.00 636.00 L 829.00 636.00 L 829.00 674.50 L 829.00 713.00 L 838.43 713.00 L 847.86 713.00 L 848.18 690.75 ZM 521.43 560.43 C522.80,559.06 523.00,554.30 523.00,523.43 C523.00,489.33 523.08,487.92 525.00,486.00 C526.10,484.90 528.24,484.00 529.75,483.99 C532.82,483.98 594.35,493.94 620.00,498.60 C630.12,500.44 630.87,500.37 632.15,497.57 C633.08,495.52 632.71,493.91 629.73,487.32 C622.78,471.88 621.00,467.21 621.00,464.34 C621.00,460.73 625.54,456.21 643.00,442.42 C649.88,436.99 656.17,431.82 657.00,430.93 C659.32,428.42 692.60,402.00 693.45,402.00 C693.67,402.00 695.15,400.76 696.75,399.25 C698.34,397.74 706.21,391.21 714.23,384.75 C725.58,375.62 728.71,372.59 728.32,371.12 C728.00,369.91 724.76,367.87 719.16,365.39 C710.22,361.41 705.29,357.90 704.06,354.60 C703.40,352.85 705.29,343.43 707.98,335.00 C708.59,333.08 709.52,329.25 710.03,326.50 C710.54,323.75 712.81,314.75 715.07,306.50 C720.46,286.83 720.69,285.32 718.35,284.74 C716.05,284.16 710.99,284.47 709.00,285.30 C708.17,285.65 705.70,286.16 703.50,286.43 C701.30,286.71 696.58,287.61 693.00,288.42 C689.42,289.24 684.92,290.13 683.00,290.41 C681.08,290.68 675.45,291.81 670.50,292.92 C665.55,294.02 660.69,294.94 659.70,294.96 C655.36,295.06 651.89,287.98 646.82,268.71 C645.84,264.99 645.02,263.79 643.12,263.31 C641.15,262.82 639.97,263.46 637.08,266.62 C610.52,295.67 590.41,317.02 589.56,317.08 C588.98,317.12 587.71,317.30 586.75,317.49 C585.79,317.67 585.00,317.41 585.00,316.91 C585.00,316.41 584.37,316.00 583.61,316.00 C580.74,316.00 580.58,310.74 583.09,299.00 C584.19,293.86 588.99,268.02 589.69,263.50 C590.41,258.82 595.88,229.34 597.58,221.00 C599.91,209.54 601.19,199.94 600.60,198.39 C599.55,195.67 594.60,197.10 579.26,204.57 C570.71,208.74 562.46,212.18 560.93,212.22 C556.47,212.35 553.27,208.08 540.52,185.00 C520.07,147.97 514.07,138.00 512.24,138.00 C511.54,138.00 509.63,140.14 508.01,142.75 C506.39,145.36 504.72,147.97 504.29,148.55 C503.85,149.14 502.36,151.84 500.96,154.55 C499.57,157.27 493.75,167.82 488.05,178.00 C482.34,188.18 476.21,199.20 474.43,202.50 C471.39,208.14 466.30,213.00 463.42,213.00 C462.72,213.00 461.47,212.32 460.64,211.50 C459.82,210.68 458.46,210.00 457.62,210.00 C455.49,210.00 451.00,207.85 451.00,206.84 C451.00,206.38 450.17,206.00 449.15,206.00 C448.13,206.00 442.46,203.72 436.55,200.93 C430.64,198.14 425.68,196.01 425.54,196.18 C424.13,197.86 422.99,201.41 423.42,202.79 C423.71,203.73 424.15,206.17 424.39,208.22 C424.64,210.26 425.09,212.34 425.40,212.83 C425.70,213.33 426.18,215.71 426.46,218.12 C426.74,220.53 427.68,225.65 428.53,229.50 C429.39,233.35 430.30,238.07 430.55,240.00 C430.80,241.93 431.85,247.77 432.87,253.00 C433.90,258.23 434.78,263.17 434.84,264.00 C434.89,264.83 435.19,266.74 435.50,268.25 C435.80,269.76 436.23,272.01 436.45,273.25 C436.67,274.49 437.52,278.65 438.35,282.50 C439.18,286.35 440.12,291.52 440.44,294.00 C440.76,296.48 441.65,301.41 442.43,304.96 C443.94,311.86 443.44,314.16 440.04,315.98 C435.09,318.63 434.27,318.05 419.50,301.57 C415.10,296.66 410.63,291.74 409.57,290.64 C408.51,289.54 402.94,283.43 397.19,277.07 C391.43,270.71 386.03,264.94 385.17,264.25 C382.32,261.95 380.22,262.80 378.95,266.75 C378.28,268.81 377.35,270.99 376.88,271.59 C376.40,272.19 376.24,272.90 376.51,273.17 C377.18,273.85 372.36,287.80 370.45,290.72 C367.84,294.70 364.71,295.24 355.12,293.36 C350.38,292.43 346.27,291.40 346.00,291.08 C345.73,290.76 343.50,290.39 341.06,290.26 C338.63,290.13 336.38,289.68 336.06,289.26 C335.75,288.84 334.09,288.45 332.36,288.40 C330.63,288.34 328.38,287.94 327.36,287.49 C326.34,287.05 323.97,286.55 322.09,286.39 C320.22,286.23 317.97,285.77 317.09,285.38 C312.81,283.44 305.30,284.32 304.76,286.82 C304.56,287.74 305.00,289.98 305.73,291.79 C306.46,293.61 306.82,295.49 306.52,295.97 C306.21,296.46 306.37,297.11 306.87,297.42 C307.37,297.73 308.08,299.61 308.46,301.62 C308.83,303.62 310.27,309.13 311.65,313.88 C313.03,318.62 314.29,323.40 314.45,324.50 C314.61,325.60 315.00,327.17 315.32,328.00 C316.84,331.94 318.94,340.39 318.51,340.83 C318.24,341.10 318.48,341.87 319.05,342.55 C320.80,344.67 321.40,355.81 319.85,357.70 C319.11,358.61 313.41,361.76 307.18,364.70 C298.73,368.70 295.94,370.47 296.18,371.71 C296.53,373.54 306.68,382.25 330.34,401.05 C335.20,404.92 341.74,410.20 344.87,412.79 C348.00,415.38 352.53,419.08 354.93,421.00 C357.33,422.92 362.04,426.74 365.40,429.48 C368.75,432.23 372.17,435.01 373.00,435.67 C402.48,459.25 403.01,459.77 402.96,464.67 C402.93,467.08 400.75,473.46 397.08,481.85 C391.29,495.07 390.70,498.29 393.80,499.48 C394.68,499.82 400.38,499.15 406.45,498.00 C412.53,496.86 419.98,495.46 423.00,494.91 C426.02,494.36 430.52,493.50 433.00,493.01 C435.48,492.51 438.96,491.82 440.73,491.48 L 443.97 490.85 L 444.27 433.17 C444.49,391.23 444.91,374.27 445.81,371.00 C446.97,366.79 449.54,360.88 451.24,358.53 C456.61,351.09 463.74,343.46 486.16,321.17 L 512.63 294.85 L 511.17 289.17 C508.23,277.71 513.37,266.91 524.07,262.06 C532.92,258.04 543.48,260.33 549.93,267.66 C552.17,270.20 554.06,272.67 554.12,273.14 C554.19,273.61 554.31,274.41 554.38,274.92 C554.44,275.42 554.84,276.17 555.25,276.58 C556.36,277.69 556.16,288.45 554.97,291.58 C552.99,296.80 547.70,302.25 542.17,304.78 C537.50,306.92 535.83,307.18 530.26,306.66 L 523.77 306.05 L 517.14 312.28 C513.49,315.70 510.25,318.85 509.93,319.28 C509.60,319.71 499.65,329.84 487.80,341.78 C475.95,353.73 465.94,364.51 465.56,365.75 C465.18,366.99 464.37,368.00 463.77,368.00 C463.16,368.00 462.93,368.27 463.26,368.59 C463.58,368.92 463.21,371.00 462.42,373.22 C461.26,376.52 461.00,387.30 461.00,432.75 L 461.00 488.25 L 464.25 487.57 C466.04,487.19 469.75,486.46 472.50,485.95 C475.25,485.44 479.08,484.66 481.00,484.22 L 484.50 483.42 L 485.00 445.96 C485.58,402.27 484.97,405.07 497.23,390.48 C507.39,378.38 517.44,368.76 523.50,365.33 C528.49,362.50 528.52,362.50 549.80,362.18 L 571.10 361.86 L 572.80 358.18 C573.74,356.16 575.11,354.11 575.86,353.64 C576.61,353.16 578.04,351.96 579.05,350.95 C582.81,347.19 585.99,345.89 592.65,345.38 C598.83,344.90 600.04,345.14 605.00,347.75 C612.64,351.79 616.16,357.54 616.59,366.72 C616.84,372.11 616.46,374.37 614.70,377.90 C612.09,383.15 604.44,389.54 599.00,391.00 C590.75,393.22 580.11,389.15 575.34,381.94 L 572.73 378.00 L 553.27 378.00 C538.06,378.00 533.11,378.33 530.65,379.50 C526.43,381.50 509.15,398.56 503.38,406.42 L 500.50 410.34 L 500.22 484.78 C500.01,539.89 500.24,559.58 501.09,560.61 C502.82,562.70 519.31,562.55 521.43,560.43 ZM 599.33 374.96 C603.03,372.05 603.79,366.92 601.09,363.12 C597.21,357.67 589.53,358.15 586.48,364.03 C582.12,372.47 591.91,380.79 599.33,374.96 ZM 539.41 288.92 C544.54,282.83 540.98,275.00 533.10,275.00 C527.49,275.00 524.16,278.20 524.47,283.28 C524.98,291.72 534.14,295.18 539.41,288.92 ZM 545.00 818.94 C545.00,817.80 545.84,814.76 546.86,812.19 C549.32,806.01 552.37,797.74 554.60,791.25 C555.62,788.25 557.00,786.00 557.80,786.00 C558.63,786.00 558.98,786.61 558.65,787.47 C558.34,788.28 558.53,789.21 559.06,789.54 C559.59,789.87 559.77,790.56 559.46,791.07 C559.14,791.58 559.41,792.00 560.05,792.00 C560.69,792.00 560.95,792.67 560.64,793.50 C560.32,794.33 560.42,795.00 560.85,795.00 C561.49,795.00 564.48,803.08 565.47,807.47 C565.60,808.04 566.40,810.08 567.26,812.00 C568.85,815.60 569.32,817.57 569.12,819.75 C569.03,820.67 565.87,821.00 557.00,821.00 C545.54,821.00 545.00,820.91 545.00,818.94 ZM 333.34 696.57 C324.29,692.57 321.22,685.36 322.34,670.74 C323.17,659.97 325.40,656.32 333.33,652.75 C340.68,649.44 349.34,650.72 355.35,656.00 C358.16,658.47 361.65,664.00 360.40,664.00 C360.05,664.00 360.20,664.56 360.74,665.25 C361.86,666.67 362.12,668.22 362.27,674.25 C362.35,677.77 361.57,683.50 361.00,683.50 C360.91,683.50 360.69,684.35 360.49,685.40 C360.29,686.44 359.61,687.62 358.98,688.01 C358.35,688.40 357.97,688.90 358.15,689.11 C358.81,689.92 355.37,693.57 352.38,695.23 C348.09,697.61 337.39,698.36 333.34,696.57 ZM 448.42 662.78 C449.89,653.60 458.92,647.86 469.44,649.44 C476.34,650.47 483.00,657.95 483.00,664.65 L 483.00 667.00 L 465.37 667.00 L 447.74 667.00 L 448.42 662.78 ZM 240.39 698.68 C234.11,695.16 233.08,688.64 238.08,684.08 C241.46,680.99 246.92,680.00 260.65,680.00 L 268.00 680.00 L 268.00 683.43 C268.00,693.77 260.03,700.29 247.97,699.81 C244.69,699.68 241.27,699.17 240.39,698.68 ZM 764.61 698.30 C759.37,695.56 758.53,688.56 762.93,684.40 C766.62,680.92 767.03,680.83 781.40,680.28 L 793.30 679.83 L 792.71 685.56 C792.22,690.23 791.52,691.90 788.86,694.64 C787.07,696.49 784.65,698.00 783.47,698.00 C782.30,698.00 781.00,698.34 780.58,698.75 C779.23,700.11 767.42,699.77 764.61,698.30 Z" fill="rgb(253,250,243)"/>
</g>
</svg>